# xmcd CD database file
#
# Track frame offsets:
#	150
#	14067
#	25665
#	36917
#	47117
#	55952
#	68185
#	76945
#	90477
#	108282
#	119490
#	127455
#	142190
#	154757
#	173862
#	184577
#	194595
#	205755
#	215432
#	228300
#
# Disc length: 3128 seconds
#
# Revision: 1
# Processed by: cddbd v1.4PL0 Copyright (c) Steve Scherf et al.
# Submitted via: Feurio! 1.62 - http://www.feurio.com
#
DISCID=250c3614
DTITLE=Various Artist - Immediate R and B 
DYEAR=1900
DGENRE=Rythm and Blues
TTITLE0=The McCoys - Hang on Sloopy
TTITLE1=The Strangeloves - Cara-Lin
TTITLE2=Goldie - Going back
TTITLE3=Chris Farlowe - In the midnight hour
TTITLE4=Amen Corner - Shake a tailfeather
TTITLE5=Stone's Masonry - Flapjacks
TTITLE6=Sam Cooke - Lead me Jesus
TTITLE7=Rod Stewart and P.P.Arnold - Come home baby
TTITLE8=Small Faces - Every little bit hurts
TTITLE9=The Poets - Baby don't do it
TTITLE10=Barbara Lynn - You can't buy me love
TTITLE11=Rod Stewart - So much to say
TTITLE12=Cyril Davies - Someday baby
TTITLE13=Humble Pie - Natural born boogie
TTITLE14=T.S.McPhee - You don't love me
TTITLE15=John Mayall and the Bluesbreakers - I'm your witchdoctor
TTITLE16=Eric Clapton - Snake drive
TTITLE17=Dharma Blues Band - Roll 'em Pete
TTITLE18=Jo-Ann Kelly - I feel so good
TTITLE19=Eric Clapton and Jimmy Page - Choker
EXTD=Charly R&B  Masters Vol 8.
EXTT0=
EXTT1=
EXTT2=
EXTT3=
EXTT4=
EXTT5=
EXTT6=
EXTT7=
EXTT8=
EXTT9=
EXTT10=
EXTT11=
EXTT12=
EXTT13=
EXTT14=
EXTT15=
EXTT16=
EXTT17=
EXTT18=
EXTT19=
PLAYORDER=
